<?xml version="1.0" encoding="utf-8" ?>	<!-- Generator: Assembly 2.2 - http://assemblyapp.co -->	<svg version="1.1" xmlns="http://www.w3.org/2000/svg" xmlns:xlink="http://www.w3.org/1999/xlink" width="2048.00" height="2048.00" viewBox="0 0 2048.0 2048.0">		<g id="document" transform="matrix(1,0,0,1,1024.0,1024.0)">			<path d="M314.335,3.84515 L314.335,-376.053 C314.335,-585.996 144.381,-755.95 -65.563,-755.95 C-275.506,-755.95 -445.461,-585.996 -445.461,-376.053 C-445.461,-166.109 -275.506,3.84513 -65.563,3.84513 L314.335,3.84515 Z M144.216,-339.699 C124.126,-223.768 14.0139,-146.183 -101.917,-166.273 C-217.848,-186.364 -295.433,-296.476 -275.342,-412.406 C-255.252,-528.337 -145.14,-605.922 -29.2091,-585.832 C86.7216,-565.742 164.307,-455.629 144.216,-339.699 Z " fill="#000000" fill-opacity="1.00" />			<path d="M-62.4869,758.335 C145.919,758.335 314.335,589.919 314.335,381.513 L314.335,-1.46056 L-68.6391,-1.46058 C-277.045,-1.46058 -445.461,166.956 -445.461,375.361 L-445.461,758.335 L-62.4869,758.335 Z " fill="#000000" fill-opacity="1.00" />		</g>	</svg>